<svg width="358" height="217" viewBox="0 0 358 217" fill="none" xmlns="http://www.w3.org/2000/svg">
<path d="M247.452 168.828V139.59H265.652V141.405H249.267V153.312H263.988V155.127H249.267V167.013H265.652V168.828H247.452Z" fill="#FBF7EC"/>
<path d="M272.065 168.828V139.59H273.88V167.013H290.265V168.828H272.065Z" fill="#FBF7EC"/>
<path d="M297.279 139.591H299.094V168.829H297.279V139.591Z" fill="#FBF7EC"/>
<path d="M306.33 168.828V167.259L323.343 141.405H306.33V139.59H325.65V141.159L308.616 167.013H325.65V168.828H306.33Z" fill="#FBF7EC"/>
<path d="M352.493 160.584L344.41 141.083L336.327 160.584H352.493ZM355.903 168.829L353.238 162.399H335.561L332.897 168.829H330.939L343.063 139.591H345.756L357.859 168.829H355.903Z" fill="#FBF7EC"/>
<path d="M261.259 204.315C263.49 204.315 265.419 203.512 266.992 201.924C268.567 200.349 269.366 198.427 269.366 196.208C269.366 193.979 268.567 192.051 266.993 190.474C265.417 188.901 263.488 188.102 261.259 188.102H249.267V204.315H261.259ZM266.144 215.525L260.656 206.13H249.267V215.525H247.452V186.287H261.259C263.985 186.287 266.342 187.269 268.263 189.205C270.199 191.129 271.181 193.484 271.181 196.208C271.181 198.729 270.317 200.963 268.613 202.844C267.009 204.617 265.022 205.684 262.701 206.022L268.237 215.525H266.144Z" fill="#FBF7EC"/>
<path d="M277.615 215.525V186.287H295.815V188.102H279.43V200.009H294.151V201.824H279.43V213.71H295.815V215.525H277.615Z" fill="#FBF7EC"/>
<path d="M302.827 186.287H304.642V215.525H302.827V186.287Z" fill="#FBF7EC"/>
<path d="M320.978 216.126C317.478 216.126 314.459 214.812 312.005 212.224L311.835 212.043L313.155 210.804L313.324 210.982C314.781 212.515 316.579 213.535 318.67 214.015C319.523 214.211 320.283 214.311 320.927 214.311C321.098 214.311 321.261 214.304 321.418 214.29C323.231 214.188 324.732 213.635 325.885 212.647C327.259 211.465 327.891 209.813 327.762 207.741C327.674 206.219 327.058 204.999 325.934 204.115C324.783 203.222 322.911 202.525 320.371 202.041L319.724 201.898C314.87 200.835 312.291 198.368 312.06 194.561C311.922 192.38 312.59 190.446 314.044 188.814C315.495 187.169 317.339 186.265 319.521 186.127C319.749 186.104 319.996 186.093 320.252 186.093C321.045 186.093 321.941 186.208 322.916 186.433C325.41 186.99 327.54 188.187 329.249 189.989L329.417 190.168L328.1 191.432L327.929 191.252C326.474 189.704 324.643 188.678 322.487 188.197C321.655 188.008 320.904 187.913 320.251 187.913C320.046 187.913 319.849 187.923 319.661 187.942C317.951 188.044 316.519 188.737 315.394 190.002C314.283 191.267 313.771 192.763 313.873 194.451C314.053 197.518 316.274 199.414 320.663 200.253L321.361 200.374C323.728 200.874 325.567 201.588 326.832 202.5C328.516 203.728 329.439 205.454 329.578 207.631C329.741 210.196 328.967 212.283 327.275 213.839C325.784 215.206 323.859 215.969 321.554 216.105C321.408 216.118 321.214 216.126 320.978 216.126Z" fill="#FBF7EC"/>
<path d="M136.756 57.3858C136.756 88.6968 111.374 114.079 80.063 114.079C48.752 114.079 23.3699 88.6968 23.3699 57.3858C23.3699 26.0748 48.752 0.692871 80.063 0.692871C111.374 0.692871 136.756 26.0748 136.756 57.3858Z" fill="#C0AF83"/>
<path d="M80.0629 142.425C80.0629 164.342 62.2949 182.11 40.3779 182.11C18.4609 182.11 0.692871 164.342 0.692871 142.425H80.0629Z" fill="#E0C7AB"/>
<path d="M210.457 102.74C210.457 134.051 185.075 159.433 153.764 159.433C122.453 159.433 97.0708 134.051 97.0708 102.74C97.0708 71.4289 122.453 46.0469 153.764 46.0469C185.075 46.0469 210.457 71.4289 210.457 102.74Z" fill="#D88456"/>
<path d="M153.764 159.433C169.419 159.433 182.11 146.742 182.11 131.087C182.11 115.431 169.419 102.74 153.764 102.74V159.433Z" fill="#FBF7EC"/>
<path d="M210.457 216.126C210.457 184.815 185.075 159.433 153.764 159.433V216.126H210.457Z" fill="#F2AD6A"/>
<path d="M40.3779 114.829H0.691895V113.329H40.3779V114.829Z" fill="#FBF7EC"/>
<path d="M80.0619 86.4829H0.692871V84.9829H80.0619V86.4829Z" fill="#FBF7EC"/>
<path d="M136.76 57.3887C136.76 82.5287 120.4 103.849 97.7198 111.249C97.2998 108.469 97.0798 105.629 97.0798 102.749C97.0798 77.5887 113.46 56.2687 136.12 48.8687C136.54 51.6487 136.76 54.4887 136.76 57.3887Z" fill="#5F6546"/>
<path d="M252.759 108.46C251.575 108.46 250.548 108.888 249.707 109.729C248.866 110.57 248.441 111.598 248.441 112.788C248.441 113.972 248.866 114.999 249.707 115.84C250.548 116.681 251.575 117.107 252.759 117.107C253.949 117.107 254.978 116.681 255.819 115.84C256.66 114.999 257.087 113.972 257.087 112.788C257.087 111.598 256.66 110.57 255.819 109.729C254.978 108.888 253.949 108.46 252.759 108.46ZM252.759 118.093C251.307 118.093 250.044 117.571 249.007 116.542C247.977 115.505 247.454 114.243 247.454 112.788C247.454 111.33 247.977 110.068 249.005 109.037C250.042 108 251.305 107.476 252.759 107.476C253.743 107.476 254.665 107.734 255.496 108.242C256.131 108.621 256.664 109.114 257.087 109.709V107.772H258.074V117.795H257.087V115.858C256.664 116.453 256.131 116.945 255.496 117.329C254.665 117.835 253.743 118.093 252.759 118.093Z" fill="#FBF7EC"/>
<path d="M263.613 117.805V107.773H264.599V109.703C265.017 109.112 265.547 108.622 266.181 108.24C267.018 107.734 267.939 107.476 268.918 107.476H269.093V108.46H268.918C267.734 108.46 266.707 108.888 265.866 109.729C265.025 110.57 264.599 111.597 264.599 112.779V117.805H263.613Z" fill="#FBF7EC"/>
<path d="M279.444 108.47C278.26 108.47 277.233 108.898 276.392 109.739C275.551 110.58 275.126 111.608 275.126 112.798C275.126 113.982 275.551 115.009 276.392 115.848C277.233 116.689 278.26 117.117 279.444 117.117C280.634 117.117 281.663 116.689 282.504 115.848C283.345 115.009 283.772 113.982 283.772 112.798C283.772 111.608 283.345 110.58 282.504 109.739C281.663 108.898 280.634 108.47 279.444 108.47ZM283.772 122.5V115.868C283.349 116.461 282.816 116.955 282.181 117.339C281.346 117.845 280.426 118.103 279.444 118.103C277.992 118.103 276.729 117.581 275.692 116.552C274.662 115.513 274.139 114.251 274.139 112.798C274.139 111.34 274.662 110.078 275.69 109.045C276.729 108.008 277.992 107.484 279.444 107.484C280.426 107.484 281.348 107.742 282.181 108.252C282.816 108.631 283.349 109.124 283.772 109.719V107.782H284.759V122.5H283.772Z" fill="#FBF7EC"/>
<path d="M294.466 118.094C293.326 118.094 292.336 117.683 291.521 116.87C290.708 116.055 290.297 115.064 290.297 113.925V107.773H291.283V113.925C291.283 114.796 291.596 115.555 292.213 116.18C292.836 116.795 293.595 117.108 294.466 117.108C295.343 117.108 296.102 116.795 296.717 116.178C297.342 115.555 297.659 114.796 297.659 113.925V107.773H298.645V113.925C298.645 115.064 298.234 116.055 297.421 116.87C296.604 117.683 295.612 118.094 294.466 118.094Z" fill="#FBF7EC"/>
<path d="M304.557 102.74H305.543V104.89H304.557V102.74ZM304.557 107.783H305.543V117.805H304.557V107.783Z" fill="#FBF7EC"/>
<path d="M315.522 118.094C314.374 118.094 313.384 117.683 312.577 116.868C311.764 116.063 311.353 115.073 311.353 113.925V105.109H312.339V107.821H315.697V108.798H312.339V113.925C312.339 114.796 312.652 115.555 313.269 116.18C313.892 116.795 314.651 117.108 315.522 117.108H315.697V118.094H315.522Z" fill="#FBF7EC"/>
<path d="M330.815 112.297C330.706 111.256 330.254 110.361 329.474 109.637C328.651 108.856 327.658 108.461 326.523 108.461C325.393 108.461 324.401 108.856 323.574 109.635C322.797 110.361 322.346 111.256 322.231 112.297H330.815ZM326.523 118.094C325.071 118.094 323.808 117.571 322.771 116.543C321.741 115.506 321.218 114.243 321.218 112.789C321.218 111.331 321.741 110.068 322.769 109.038C323.806 108.001 325.069 107.476 326.523 107.476C327.983 107.476 329.246 108.003 330.276 109.04C331.311 110.068 331.838 111.331 331.838 112.789V113.283H322.231C322.346 114.318 322.797 115.212 323.574 115.944C324.399 116.716 325.393 117.108 326.523 117.108C327.713 117.108 328.742 116.682 329.583 115.841L329.71 115.716L330.4 116.42L330.276 116.543C329.244 117.571 327.981 118.094 326.523 118.094Z" fill="#FBF7EC"/>
<path d="M341.543 118.094C340.395 118.094 339.405 117.683 338.598 116.868C337.785 116.063 337.374 115.073 337.374 113.925V105.109H338.36V107.821H341.718V108.798H338.36V113.925C338.36 114.796 338.673 115.555 339.29 116.18C339.913 116.795 340.672 117.108 341.543 117.108H341.718V118.094H341.543Z" fill="#FBF7EC"/>
<path d="M352.543 108.46C351.359 108.46 350.332 108.888 349.491 109.729C348.65 110.57 348.225 111.598 348.225 112.788C348.225 113.972 348.65 114.999 349.491 115.84C350.332 116.681 351.359 117.107 352.543 117.107C353.733 117.107 354.762 116.681 355.603 115.84C356.444 114.999 356.871 113.972 356.871 112.788C356.871 111.598 356.444 110.57 355.603 109.729C354.762 108.888 353.733 108.46 352.543 108.46ZM352.543 118.093C351.091 118.093 349.828 117.571 348.791 116.542C347.761 115.505 347.238 114.243 347.238 112.788C347.238 111.33 347.761 110.068 348.789 109.037C349.826 108 351.089 107.476 352.543 107.476C353.527 107.476 354.449 107.734 355.28 108.242C355.915 108.621 356.448 109.114 356.871 109.709V107.772H357.858V117.795H356.871V115.858C356.448 116.453 355.915 116.945 355.28 117.329C354.449 117.835 353.527 118.093 352.543 118.093Z" fill="#FBF7EC"/>
</svg>
