<svg width="118" height="121" viewBox="0 0 118 121" fill="none" xmlns="http://www.w3.org/2000/svg">
<path d="M76.1893 31.746C76.1893 49.279 61.9763 63.492 44.4433 63.492C26.9103 63.492 12.6973 49.279 12.6973 31.746C12.6973 14.213 26.9103 0 44.4433 0C61.9763 0 76.1893 14.213 76.1893 31.746Z" fill="#C0AF83"/>
<path d="M44.4443 79.3647C44.4443 91.6375 34.4949 101.587 22.2222 101.587C9.94943 101.587 0 91.6375 0 79.3647H44.4443Z" fill="#C86B4A"/>
<path d="M117.461 57.1426C117.461 74.6756 103.248 88.8886 85.7148 88.8886C68.1817 88.8886 53.9688 74.6756 53.9688 57.1426C53.9688 39.6096 68.1817 25.3966 85.7148 25.3966C103.248 25.3966 117.461 39.6096 117.461 57.1426Z" fill="#D88456"/>
<path d="M85.7148 88.8886C94.4811 88.8886 101.588 81.7821 101.588 73.0159C101.588 64.2491 94.4811 57.1426 85.7148 57.1426V88.8886Z" fill="#FBF7EC"/>
<path d="M117.461 120.635C117.461 103.102 103.248 88.8886 85.7148 88.8886V120.635H117.461Z" fill="#F2AD6A"/>
<path d="M22.2227 63.912H0V63.0721H22.2227V63.912Z" fill="#FBF7EC"/>
<path d="M44.4438 48.0393H0V47.1993H44.4438V48.0393Z" fill="#FBF7EC"/>
<path d="M76.192 31.7477C76.192 45.8252 67.031 57.7636 54.331 61.9073C54.0958 60.3506 53.9727 58.7603 53.9727 57.1476C53.9727 43.059 63.1449 31.1205 75.8336 26.9768C76.0688 28.5335 76.192 30.1238 76.192 31.7477Z" fill="#5F6546"/>
</svg>
